<?xml version="1.0" standalone="no"?>
<!DOCTYPE svg PUBLIC "-//W3C//DTD SVG 20010904//EN"
 "http://www.w3.org/TR/2001/REC-SVG-20010904/DTD/svg10.dtd">
<svg version="1.0" xmlns="http://www.w3.org/2000/svg"
 width="120.000000pt" height="120.000000pt" viewBox="0 0 120.000000 120.000000"
 preserveAspectRatio="xMidYMid meet">
<metadata>
Created by potrace 1.11, written by Peter Selinger 2001-2013
</metadata>
<g transform="translate(0.000000,120.000000) scale(0.100000,-0.100000)"
fill="#000000" stroke="none">
<path d="M507 1128 c-45 -10 -104 -39 -134 -67 -69 -65 -121 -185 -125 -290
-1 -44 -7 -48 -41 -29 -34 17 -56 47 -67 90 -13 46 -47 72 -84 62 -25 -6 -54
-46 -51 -69 17 -150 101 -301 201 -361 15 -9 16 -16 7 -50 -6 -21 -12 -46 -14
-54 -2 -8 -6 -17 -9 -20 -3 -3 -18 -32 -35 -65 -16 -33 -44 -83 -62 -112 l-33
-52 34 -20 c18 -12 45 -21 59 -21 23 0 88 18 137 37 55 22 100 18 192 -17 67
-25 180 -21 258 10 68 27 117 24 243 -16 63 -19 115 -14 142 16 17 19 17 22
-22 79 -33 49 -64 107 -103 191 -4 9 -10 29 -14 46 -6 27 -2 34 42 72 89 74
157 204 167 314 4 54 -13 83 -57 93 -34 8 -63 -19 -77 -73 -11 -40 -29 -60
-69 -82 -28 -14 -35 -9 -37 28 -10 170 -101 310 -228 352 -47 15 -168 20 -220
8z"/>
</g>
</svg>
